# Blender v2.81 (sub 16) OBJ File: ''
# www.blender.org
mtllib untitled.mtl
o Cube
v -1.062114 1.062114 -2.074982
v 1.062114 1.062114 -2.074982
v 1.062114 -1.062114 -2.074982
v -1.062114 -1.062114 -2.074982
v 1.032873 -1.032873 1.929265
v 1.032873 1.032873 1.929265
v -1.032873 1.032873 1.929265
v -1.032873 -1.032873 1.929265
v 0.576527 0.576527 -1.000000
v 0.576527 1.000000 -0.576527
v 1.000000 0.576527 -0.576527
v 0.576527 -1.000000 -0.576527
v 0.576527 -0.576527 -1.000000
v 1.000000 -0.576527 -0.576527
v 1.000000 0.576527 0.576527
v 0.576527 1.000000 0.576527
v 0.576527 0.576527 1.000000
v 1.000000 -0.576527 0.576527
v 0.576527 -0.576527 1.000000
v 0.576527 -1.000000 0.576527
v -0.576527 0.576527 -1.000000
v -1.000000 0.576527 -0.576527
v -0.576527 1.000000 -0.576527
v -1.000000 -0.576527 -0.576527
v -0.576527 -0.576527 -1.000000
v -0.576527 -1.000000 -0.576527
v -1.000000 0.576527 0.576527
v -0.576527 0.576527 1.000000
v -0.576527 1.000000 0.576527
v -0.576527 -1.000000 0.576527
v -0.576527 -0.576527 1.000000
v -1.000000 -0.576527 0.576527
vt 0.177934 0.552934
vt 0.322066 0.552934
vt 0.322066 0.697066
vt 0.177934 0.697066
vt 0.427934 0.052934
vt 0.572066 0.052934
vt 0.572066 0.197066
vt 0.427934 0.197066
vt 0.427934 0.802934
vt 0.572066 0.802934
vt 0.572066 0.947066
vt 0.427934 0.947066
vt 0.427934 0.802934
vt 0.572066 0.802934
vt 0.677934 0.552934
vt 0.822066 0.552934
vt 0.822066 0.697066
vt 0.677934 0.697066
vt 0.427934 0.552934
vt 0.572066 0.552934
vt 0.572066 0.697066
vt 0.427934 0.697066
vt 0.572066 0.447066
vt 0.625000 0.447066
vt 0.572066 0.500000
vt 0.322066 0.500000
vt 0.375000 0.552934
vt 0.625000 0.697066
vt 0.572066 0.750000
vt 0.427934 0.750000
vt 0.375000 0.697066
vt 0.572066 0.302934
vt 0.572066 0.250000
vt 0.625000 0.302934
vt 0.427934 0.250000
vt 0.375000 0.197066
vt 0.572066 0.000000
vt 0.625000 0.052934
vt 0.177934 0.750000
vt 0.125000 0.697066
vt 0.125000 0.552934
vt 0.177934 0.500000
vt 0.427934 0.447066
vt 0.427934 0.947066
vt 0.572066 0.947066
vt 0.572066 1.000000
vt 0.427934 1.000000
vt 0.427934 0.302934
vt 0.822066 0.750000
vt 0.677934 0.750000
vt 0.322066 0.750000
vt 0.875000 0.552934
vt 0.875000 0.697066
vt 0.677934 0.500000
vt 0.822066 0.500000
vt 0.427934 0.447066
vt 0.572066 0.447066
vt 0.322066 0.750000
vt 0.177934 0.750000
vt 0.822066 0.750000
vt 0.677934 0.750000
vt 0.427934 0.302934
vt 0.572066 0.302934
vt 0.177934 0.500000
vt 0.322066 0.500000
vt 0.677934 0.500000
vt 0.822066 0.500000
vn 0.0000 -1.0000 0.0000
vn -1.0000 0.0000 0.0000
vn 0.0000 0.0000 1.0000
vn 0.8976 0.0000 -0.4408
vn 0.0000 1.0000 0.0000
vn 1.0000 0.0000 0.0000
vn 0.5774 0.5774 -0.5774
vn 0.5774 -0.5774 -0.5774
vn 0.5774 0.5774 0.5774
vn 0.5774 -0.5774 0.5774
vn -0.5774 0.5774 -0.5774
vn -0.5774 -0.5774 -0.5774
vn -0.5774 0.5774 0.5774
vn -0.5774 -0.5774 0.5774
vn -0.7071 -0.7071 0.0000
vn 0.0000 -0.7071 -0.7071
vn 0.7071 0.0000 -0.7071
vn -0.7071 0.0000 0.7071
vn 0.7071 0.0000 0.7071
vn -0.7071 0.0000 -0.7071
vn 0.0000 0.7071 0.7071
vn 0.7071 0.7071 0.0000
vn 0.0000 -0.7071 0.7071
vn -0.7071 0.7071 0.0000
vn 0.0000 0.7071 -0.7071
vn 0.7071 -0.7071 0.0000
vn 0.9113 0.0000 0.4117
vn -0.8976 0.0000 -0.4408
vn 0.0000 -0.8976 -0.4408
vn 0.0000 0.8976 -0.4408
vn 0.0000 0.0000 -1.0000
vn 0.0000 -0.9113 0.4117
vn -0.9113 0.0000 0.4117
vn 0.0000 0.9113 0.4117
usemtl Material
s off
f 26/1/1 12/2/1 20/3/1 30/4/1
f 32/5/2 27/6/2 22/7/2 24/8/2
f 5/9/3 6/10/3 7/11/3 8/12/3
f 19/13/4 17/14/4 6/10/4 5/9/4
f 10/15/5 23/16/5 29/17/5 16/18/5
f 14/19/6 11/20/6 15/21/6 18/22/6
f 9/23/7 10/24/7 11/25/7
f 12/2/8 13/26/8 14/27/8
f 15/21/9 16/28/9 17/29/9
f 18/22/10 19/30/10 20/31/10
f 21/32/11 22/33/11 23/34/11
f 24/8/12 25/35/12 26/36/12
f 27/6/13 28/37/13 29/38/13
f 30/4/14 31/39/14 32/40/14
f 26/1/15 30/4/15 32/40/15 24/41/15
f 12/2/16 26/1/16 25/42/16 13/26/16
f 11/20/17 14/19/17 13/43/17 9/23/17
f 31/44/18 28/45/18 27/46/18 32/47/18
f 17/14/19 19/13/19 18/22/19 15/21/19
f 21/32/20 25/48/20 24/8/20 22/7/20
f 16/18/21 29/17/21 28/49/21 17/50/21
f 10/15/22 16/18/22 15/21/22 11/20/22
f 30/4/23 20/3/23 19/51/23 31/39/23
f 29/17/24 23/16/24 22/52/24 27/53/24
f 23/16/25 10/15/25 9/54/25 21/55/25
f 20/3/26 12/2/26 14/19/26 18/22/26
f 9/23/27 13/43/27 3/56/27 2/57/27
f 28/45/28 31/44/28 8/12/28 7/11/28
f 31/39/29 19/51/29 5/58/29 8/59/29
f 17/50/30 28/49/30 7/60/30 6/61/30
f 4/62/31 1/63/31 2/57/31 3/56/31
f 13/26/32 25/42/32 4/64/32 3/65/32
f 25/48/33 21/32/33 1/63/33 4/62/33
f 21/55/34 9/54/34 2/66/34 1/67/34
